<?xml version="1.0" standalone="no"?><!DOCTYPE svg PUBLIC "-//W3C//DTD SVG 1.1//EN" "http://www.w3.org/Graphics/SVG/1.1/DTD/svg11.dtd"><svg t="1545715086713" class="icon" style="" viewBox="0 0 1024 1024" version="1.1" xmlns="http://www.w3.org/2000/svg" p-id="6873" xmlns:xlink="http://www.w3.org/1999/xlink" width="200" height="200"><defs><style type="text/css"></style></defs><path d="M897.536 474.624c3.584-3.584 5.632-8.704 5.632-13.824V29.696c0-5.12-2.56-10.24-6.144-13.824-3.584-3.584-8.704-5.12-13.312-5.12H452.096c-5.12 0-10.24 2.048-13.824 5.632L31.232 422.4c-41.472 41.472-41.472 109.568 0 151.552l307.712 307.712c41.984 41.984 109.568 41.472 151.552 0l407.04-407.04z" fill="#AC98C6" p-id="6874"></path><path d="M624.128 125.952a115.2 115.2 0 0 1 81.408-33.792c29.696 0 58.88 11.264 81.408 33.792 45.056 45.056 45.056 117.76 0 162.304-45.056 45.056-117.76 45.056-162.816 0-44.544-45.056-44.544-117.76 0-162.304zM428.032 653.312l-64-64-52.736 52.736-32.768-32.768 52.736-52.736-66.56-66.56 26.624-26.624 66.56 66.56 36.352-36.352-66.56-66.56 26.112-26.112 56.832 56.832 49.664-187.904 37.376 37.376C471.04 398.336 453.12 455.68 444.416 478.208l0.512 0.512c8.704-4.096 28.672-10.752 58.88-19.968l112.64-33.28 35.328 35.328-188.416 49.152 54.784 54.784-26.112 26.112-64-64-36.352 36.352L455.68 627.2l-27.648 26.112z" fill="#FFFFFF" p-id="6875"></path><path d="M1023.488 465.92L932.352 44.544c-0.512-3.584-2.56-6.656-5.12-9.216 2.56 118.784 0.512 237.568 1.024 356.864-3.584 30.208 7.168 62.976-6.144 91.136-131.072 136.192-267.264 268.288-400.896 401.92-15.872 20.992-37.888 36.352-62.976 45.056l102.912 66.048c49.664 31.744 116.224 17.408 148.48-32.256l311.296-483.328c2.56-4.608 3.584-9.728 2.56-14.848z" fill="#EFE6FF" p-id="6876"></path></svg>