<?xml version="1.0" standalone="no"?><!DOCTYPE svg PUBLIC "-//W3C//DTD SVG 1.1//EN" "http://www.w3.org/Graphics/SVG/1.1/DTD/svg11.dtd"><svg t="1545715074299" class="icon" style="" viewBox="0 0 1032 1024" version="1.1" xmlns="http://www.w3.org/2000/svg" p-id="6291" xmlns:xlink="http://www.w3.org/1999/xlink" width="201.5625" height="200"><defs><style type="text/css"></style></defs><path d="M529.655172 0c-191.904048 0-348.497751 160.687656-348.497751 358.22089 0 157.105447 221.585207 303.976012 311.14043 405.813093 19.446277 22.516742 54.244878 21.493253 73.691154-0.511744 89.555222-102.348826 312.163918-249.21939 312.163919-405.301349 0-197.533233-156.593703-358.22089-348.497752-358.22089z m0 529.655172c-92.113943 0-166.828586-77.273363-166.828585-170.922538 0-94.672664 74.714643-170.922539 166.828585-170.922539s166.828586 76.761619 166.828586 170.922539-74.714643 170.922539-166.828586 170.922538z" fill="#0085D0" p-id="6292"></path><path d="M934.956522 677.037481c-9.723138-17.3993-31.216392-27.122439-56.803598-27.122439h-98.254873c-17.3993 0-41.963018 10.234883-58.850575 27.634183-52.197901 70.62069-159.152424 151.476262-169.89905 165.293354-9.723138 12.281859-34.286857 12.281859-44.521739 0-8.69965-10.234883-116.165917-98.254873-171.434283-167.852074-14.84058-14.84058-26.610695-26.610695-55.78011-26.610695H180.133933c-20.981509 0-44.521739 6.14093-56.803598 28.145927-30.704648 55.268366-95.696152 167.852074-95.696152 167.852074 0 30.192904 25.075462 55.78011 55.78011 55.78011h292.205897c33.263368 0 39.916042 3.582209 61.409295 28.145927 35.822089 41.451274 72.155922 83.926037 76.249875 89.043478 7.676162 8.69965 24.051974 8.69965 31.216392 0 5.629185-6.652674 41.451274-49.127436 76.761619-89.555222 20.981509-24.051974 27.634183-27.634183 62.432784-27.634183h292.205897c30.192904 0 55.78011-25.075462 55.78011-55.78011 0 0.511744-64.991504-113.607196-96.71964-167.34033z" fill="#6ED9FF" p-id="6293"></path></svg>