<?xml version="1.0" standalone="no"?><!DOCTYPE svg PUBLIC "-//W3C//DTD SVG 1.1//EN" "http://www.w3.org/Graphics/SVG/1.1/DTD/svg11.dtd"><svg t="1545715016611" class="icon" style="" viewBox="0 0 1024 1024" version="1.1" xmlns="http://www.w3.org/2000/svg" p-id="4067" xmlns:xlink="http://www.w3.org/1999/xlink" width="200" height="200"><defs><style type="text/css"></style></defs><path d="M103.936 160.256H875.52V849.92H103.936z" fill="#FFFFFF" p-id="4068"></path><path d="M830.464 419.328l-202.752 202.752c-17.92 17.92-47.616 18.432-65.536 0l-148.992-148.48-195.072 193.024c-18.432 17.92-47.616 17.92-65.536 0-17.92-18.432-17.92-47.616 0.512-66.048l228.352-225.792c18.432-17.92 47.616-17.92 65.536 0l148.48 148.48L765.44 353.28c17.92-17.92 47.616-17.92 66.048 0 17.408 18.432 17.408 48.128-1.024 66.048M931.328 0H92.672C41.472 0 0 41.472 0 92.672v838.656c0 51.2 41.472 92.672 92.672 92.672h838.656c51.2 0 92.672-41.472 92.672-92.672V92.672c0-51.2-41.472-92.672-92.672-92.672" fill="#77A9FB" p-id="4069"></path></svg>