<?xml version="1.0" standalone="no"?><!DOCTYPE svg PUBLIC "-//W3C//DTD SVG 1.1//EN" "http://www.w3.org/Graphics/SVG/1.1/DTD/svg11.dtd"><svg t="1545714951744" class="icon" style="" viewBox="0 0 1024 1024" version="1.1" xmlns="http://www.w3.org/2000/svg" p-id="3252" xmlns:xlink="http://www.w3.org/1999/xlink" width="200" height="200"><defs><style type="text/css"></style></defs><path d="M0 512c0 282.624 229.376 512 512 512s512-229.376 512-512S794.624 0 512 0 0 229.376 0 512z" fill="#3A8DFE" p-id="3253"></path><path d="M512 853.504c-188.416 0-341.504-152.576-341.504-341.504 0-188.416 152.576-341.504 341.504-341.504s341.504 152.576 341.504 341.504-153.088 341.504-341.504 341.504z m0-635.904c-162.816 0-294.4 132.096-294.4 294.4s132.096 294.4 294.4 294.4 294.4-132.096 294.4-294.4c0-162.816-131.584-294.4-294.4-294.4z" fill="#FFFFFF" p-id="3254"></path><path d="M528.384 490.496c-27.136-13.312-50.688-24.576-50.688-51.712-1.024-20.48 15.36-38.4 35.84-38.912h5.12c19.968 0 38.4 8.704 51.2 24.064l3.072 2.56 24.576-27.648-2.56-2.56c-15.872-18.432-37.888-30.208-61.44-33.792v-44.544h-34.304v44.544c-37.888 5.632-65.024 38.4-64 76.8 0 47.616 36.352 66.048 68.608 82.432 28.672 14.336 55.808 28.16 55.808 60.416 0 27.136-16.384 42.496-46.08 42.496-24.576-1.024-47.616-10.752-65.024-27.136l-3.072-2.56-21.504 30.72 2.56 2.048c20.48 17.92 46.08 29.696 73.216 33.792v44.544h34.304v-44.544c40.448-5.12 70.144-40.448 68.096-80.896 0-54.784-38.912-73.216-73.216-90.112h-0.512z" fill="#FFFFFF" p-id="3255"></path></svg>