<?xml version="1.0" standalone="no"?><!DOCTYPE svg PUBLIC "-//W3C//DTD SVG 1.1//EN" "http://www.w3.org/Graphics/SVG/1.1/DTD/svg11.dtd"><svg t="1545715053368" class="icon" style="" viewBox="0 0 1024 1024" version="1.1" xmlns="http://www.w3.org/2000/svg" p-id="5476" xmlns:xlink="http://www.w3.org/1999/xlink" width="200" height="200"><defs><style type="text/css"></style></defs><path d="M473.902848 481.792c102.4-29.184 177.152-122.88 177.152-235.52 0-135.68-110.592-245.76-245.76-245.76S159.022848 110.592 159.022848 245.76c0 112.64 75.264 206.336 177.152 235.52-162.816 31.232-293.888 164.864-333.824 339.968-12.288 56.32 25.088 112.64 77.312 112.64h648.192c52.224 0 89.6-54.272 77.312-110.592-39.424-177.152-168.448-310.272-331.264-341.504z" fill="#FFCF83" p-id="5477"></path><path d="M709.422848 181.248h281.6c16.896 0 31.232-14.848 31.232-31.232s-14.848-31.232-31.232-31.232h-281.6c-16.896 0-31.232 14.848-31.232 31.232s14.848 31.232 31.232 31.232z" fill="#FFD400" p-id="5478"></path><path d="M993.070848 365.056h-216.576c-16.896 0-31.232 14.848-31.232 31.232s14.848 31.232 31.232 31.232h216.576c16.896 0 31.232-14.848 31.232-31.232s-14.848-31.232-31.232-31.232z" fill="#FFE98D" p-id="5479"></path><path d="M993.070848 612.864h-129.024c-16.896 0-31.232 14.848-31.232 31.232s14.848 31.232 31.232 31.232h129.024c16.896 0 31.232-14.848 31.232-31.232s-14.848-31.232-31.232-31.232z" fill="#FFF2BD" p-id="5480"></path></svg>