<?xml version="1.0" standalone="no"?><!DOCTYPE svg PUBLIC "-//W3C//DTD SVG 1.1//EN" "http://www.w3.org/Graphics/SVG/1.1/DTD/svg11.dtd"><svg t="1545714999810" class="icon" style="" viewBox="0 0 1024 1024" version="1.1" xmlns="http://www.w3.org/2000/svg" p-id="3486" xmlns:xlink="http://www.w3.org/1999/xlink" width="200" height="200"><defs><style type="text/css"></style></defs><path d="M832 0h-640c-70.656 0-128 57.856-128 128v896l448-128 448 128V128c0-70.144-57.344-128-128-128z" fill="#7293FF" p-id="3487"></path><path d="M787.456 416.256l-102.4 102.4 25.6 140.8c6.656 38.4-32.256 70.656-70.656 51.2l-128-64-128 64c-32.256 19.456-76.8-12.8-70.144-51.2l25.6-140.8-102.4-102.4c-25.6-25.6-12.8-76.8 25.6-76.8l140.8-19.456 64-128c19.456-32.256 70.656-32.256 83.456 0l64 128 140.8 19.456c44.544 0 57.344 51.2 31.744 76.8z" fill="#FFFFFF" p-id="3488"></path></svg>