<?xml version="1.0" standalone="no"?><!DOCTYPE svg PUBLIC "-//W3C//DTD SVG 1.1//EN" "http://www.w3.org/Graphics/SVG/1.1/DTD/svg11.dtd"><svg t="1545715082012" class="icon" style="" viewBox="0 0 1028 1024" version="1.1" xmlns="http://www.w3.org/2000/svg" p-id="6639" xmlns:xlink="http://www.w3.org/1999/xlink" width="200.78125" height="200"><defs><style type="text/css"></style></defs><path d="M151.552 393.216V1024h69.632V389.12c20.48-57.344 45.056-118.784 65.536-176.128 16.384-49.152 32.768-81.92 40.96-98.304 16.384-36.864 32.768-61.44 53.248-77.824C397.312 20.48 421.888 8.192 450.56 4.096c61.44-8.192 110.592 16.384 147.456 69.632 36.864 53.248 16.384 118.784 0 196.608L593.92 286.72l-12.288 49.152h348.16c32.768 0 57.344 12.288 73.728 32.768 16.384 20.48 24.576 53.248 24.576 94.208l-61.44 438.272c0 36.864-12.288 65.536-36.864 86.016-28.672 24.576-57.344 36.864-90.112 36.864H69.632c-16.384 0-36.864-8.192-49.152-20.48s-20.48-28.672-20.48-49.152V458.752C0 421.888 28.672 389.12 69.632 389.12l81.92 4.096z" fill="#27B3D8" p-id="6640"></path><path d="M69.632 388.096C28.672 388.096 0 420.864 0 457.728v495.616c0 20.48 8.192 36.864 20.48 49.152 12.288 12.288 32.768 20.48 49.152 20.48h81.92V392.192l-81.92-4.096z" fill="#61D0E2" p-id="6641"></path></svg>