<?xml version="1.0" standalone="no"?><!DOCTYPE svg PUBLIC "-//W3C//DTD SVG 1.1//EN" "http://www.w3.org/Graphics/SVG/1.1/DTD/svg11.dtd"><svg t="1545715071821" class="icon" style="" viewBox="0 0 1027 1024" version="1.1" xmlns="http://www.w3.org/2000/svg" p-id="6175" xmlns:xlink="http://www.w3.org/1999/xlink" width="200.5859375" height="200"><defs><style type="text/css"></style></defs><path d="M516.096 512m-510.976 0a510.976 510.976 0 1 0 1021.952 0 510.976 510.976 0 1 0-1021.952 0Z" fill="#1DC4D8" p-id="6176"></path><path d="M683.008 691.2l-14.848 14.848c-12.8 12.288-33.28 12.8-46.592 1.536L450.56 560.128c-13.312-11.776-23.04-35.84-22.016-53.248l17.92-282.624c0.512-17.408 15.872-31.744 33.28-31.744h20.992c17.408 0 32.256 14.336 33.28 31.744l14.848 231.424c1.024 17.408 11.264 42.496 23.04 55.808l112.64 133.12c11.264 13.312 10.752 34.304-1.536 46.592z" fill="#FFFDFD" p-id="6177"></path></svg>