<?xml version="1.0" standalone="no"?><!DOCTYPE svg PUBLIC "-//W3C//DTD SVG 1.1//EN" "http://www.w3.org/Graphics/SVG/1.1/DTD/svg11.dtd"><svg t="1545715013468" class="icon" style="" viewBox="0 0 1024 1024" version="1.1" xmlns="http://www.w3.org/2000/svg" p-id="3951" xmlns:xlink="http://www.w3.org/1999/xlink" width="200" height="200"><defs><style type="text/css"></style></defs><path d="M979.456 812.032c-4.096-80.896-46.592-156.16-116.224-205.312V380.416c0-130.56-100.864-240.64-233.984-266.752v-5.12C629.248 48.64 576.512 0 512 0S394.752 48.64 394.752 108.544v5.12c-133.12 26.112-233.984 135.68-233.984 266.752v226.304c-69.632 49.152-112.128 123.904-116.224 205.312h116.224v0.512h701.952v-0.512h116.736z" fill="#8CDD24" p-id="3952"></path><path d="M487.424 1024h29.184c76.288 0 139.776-57.344 148.992-131.072H359.424C368.64 967.68 432.64 1024 507.904 1024h-20.48z" fill="#94C689" p-id="3953"></path></svg>