<?xml version="1.0" standalone="no"?><!DOCTYPE svg PUBLIC "-//W3C//DTD SVG 1.1//EN" "http://www.w3.org/Graphics/SVG/1.1/DTD/svg11.dtd"><svg t="1545715088983" class="icon" style="" viewBox="0 0 1024 1024" version="1.1" xmlns="http://www.w3.org/2000/svg" p-id="6990" xmlns:xlink="http://www.w3.org/1999/xlink" width="200" height="200"><defs><style type="text/css"></style></defs><path d="M66.56 69.12v737.792c0 27.136 16.896 50.688 41.984 59.904l381.44 138.752c14.336 5.12 29.696 5.12 44.032 0l381.44-138.752c25.088-9.216 41.984-33.28 41.984-59.904V69.12C957.44 33.792 928.768 5.12 893.44 5.12h-762.88C95.232 5.12 66.56 33.792 66.56 69.12z" fill="#FE9586" p-id="6991"></path><path d="M263.68 184.32l32.256-65.024L327.68 184.32l71.68 10.24-51.712 51.2 12.288 71.68-64-33.792L231.936 317.44l12.288-71.68-51.712-50.688zM606.72 732.16h-378.88c-15.36 0-28.16-12.8-28.16-28.16s12.8-28.16 28.16-28.16h378.88c15.36 0 28.16 12.8 28.16 28.16s-12.8 28.16-28.16 28.16zM739.84 588.8h-512c-15.36 0-28.16-12.8-28.16-28.16s12.8-28.16 28.16-28.16h512c15.36 0 28.16 12.8 28.16 28.16s-12.8 28.16-28.16 28.16zM474.624 445.44H227.84c-15.36 0-28.16-12.8-28.16-28.16s12.8-28.16 28.16-28.16h246.784c15.36 0 28.16 12.8 28.16 28.16S489.984 445.44 474.624 445.44z" fill="#FFFFFF" p-id="6992"></path></svg>