<?xml version="1.0" standalone="no"?><!DOCTYPE svg PUBLIC "-//W3C//DTD SVG 1.1//EN" "http://www.w3.org/Graphics/SVG/1.1/DTD/svg11.dtd"><svg t="1545715003729" class="icon" style="" viewBox="0 0 1024 1024" version="1.1" xmlns="http://www.w3.org/2000/svg" p-id="3602" xmlns:xlink="http://www.w3.org/1999/xlink" width="200" height="200"><defs><style type="text/css"></style></defs><path d="M1019.904 450.56l-483.328 106.496 417.792 208.896c45.056-73.728 69.632-159.744 69.632-253.952 0-20.48 0-40.96-4.096-61.44zM1007.616 389.12C958.464 184.32 786.432 28.672 573.44 4.096L446.464 512l561.152-122.88zM737.28 970.752c73.728-36.864 139.264-90.112 188.416-159.744l-417.792-208.896 229.376 368.64z" fill="#98BDD8" p-id="3603"></path><path d="M512 0C229.376 0 0 229.376 0 512s229.376 512 512 512c61.44 0 118.784-12.288 172.032-28.672L385.024 512 512 0z" fill="#4B81BC" p-id="3604"></path></svg>