<?xml version="1.0" standalone="no"?><!DOCTYPE svg PUBLIC "-//W3C//DTD SVG 1.1//EN" "http://www.w3.org/Graphics/SVG/1.1/DTD/svg11.dtd"><svg t="1545715034686" class="icon" style="" viewBox="0 0 1062 1024" version="1.1" xmlns="http://www.w3.org/2000/svg" p-id="4654" xmlns:xlink="http://www.w3.org/1999/xlink" width="207.421875" height="200"><defs><style type="text/css"></style></defs><path d="M735.744 701.44m-311.296 0a311.296 311.296 0 1 0 622.592 0 311.296 311.296 0 1 0-622.592 0Z" fill="#FFCAD8" p-id="4655"></path><path d="M804.864 659.456c5.12 1.024 10.24 1.536 14.336 2.048h47.104c4.608-0.512 8.704 1.024 11.776 5.12 3.072 3.584 4.096 11.264 4.096 11.264v33.792s-3.584 10.24-13.312 11.264h-81.92c-3.584-1.536-6.656-0.512-10.752 1.536-3.072 1.536-4.608 4.608-4.608 8.704 0 4.096 0 8.192 0.512 12.288 0.512 4.096 0.512 8.192 0.512 10.752 0 5.632 4.608 7.68 13.824 8.704h80.896c9.216-2.56 18.944 10.24 18.944 10.24v31.232s-12.288 13.824-25.088 10.24h-17.92c-7.68 3.584-14.848 4.096-23.04 4.608-8.192 0.512-14.848 1.024-21.504 0.512h-12.8c-8.192 0.512-12.8 14.336-12.8 14.336v55.808c0 4.608-3.584 6.656-10.752 6.656h-41.984c-11.264 0-16.896-4.608-16.896-14.336 0-3.584 0.512-11.264 0.512-23.04 0.512-11.776 0-19.456-0.512-24.064 0-4.096-0.512-7.68-1.536-8.704-0.512-1.024-3.072-2.048-8.192-2.048h-87.552c-12.288 0-18.432-6.144-18.432-18.944 0-2.56-0.512-6.144-1.536-11.264-1.024-4.096-1.024-8.704 0-13.824 1.024-4.608 2.56-9.216 4.096-13.312 2.048-3.584 5.632-5.12 11.264-4.096h96.256c2.048 0 2.56-2.048 2.56-7.68v-26.624c0-4.608-5.632-6.656-16.896-6.656h-81.92c-3.584 0-6.656 0-10.24-0.512-3.072-0.512-4.096-3.072-4.096-8.192v-18.432s-1.536-13.312-2.048-16.896c-2.048-5.632-0.512-10.752 4.096-13.824 4.608-4.096 10.752-5.632 17.92-5.632 7.68 1.024 15.36 1.024 24.576 0.512 8.704-0.512 15.36-0.512 19.968-3.584h16.384c5.632 3.072 7.68 1.024 5.632-2.048-1.536-2.048-7.68-9.216-16.384-20.992-9.728-12.8-18.944-25.088-29.184-38.4-12.288-15.872-26.112-33.28-41.984-52.736-6.144-10.752-5.12-18.944 4.096-25.6 4.608-3.072 9.728-6.144 14.336-10.752 5.12-4.096 11.264-8.192 17.408-11.776 9.216-5.632 17.92-0.512 26.624 15.36 3.072 4.096 8.192 10.752 15.872 20.48 8.192 10.24 15.872 19.968 24.576 31.744 8.192 11.776 15.872 21.504 24.064 30.208 7.68 9.216 11.776 14.848 12.8 16.384 1.536 3.584 5.12 6.144 10.24 6.656 5.12 1.024 9.216-0.512 10.752-4.096 1.024-2.048 4.608-8.192 11.776-17.92 6.656-9.728 14.336-20.48 23.04-32.768s15.872-24.064 23.552-34.816c7.68-10.752 12.288-17.408 13.824-19.968 4.608-6.656 8.704-10.752 11.776-12.8 3.072-2.048 8.704-1.536 15.872 1.536 4.608 2.048 9.728 4.608 14.848 8.704 5.632 3.584 9.728 6.656 11.264 8.704 10.24 10.752 13.312 18.944 8.704 27.136-1.536 3.072-6.656 10.24-14.848 20.992-8.704 11.264-17.408 23.552-27.136 35.84-10.24 12.8-18.432 24.576-26.624 35.84s-12.288 17.92-13.312 19.456c-0.512 3.584 0.512 6.656 5.12 7.68z" fill="#FFFFFF" p-id="4656"></path><path d="M26.624 189.952a382.976 189.952 0 1 0 765.952 0 382.976 189.952 0 1 0-765.952 0Z" fill="#FB7895" p-id="4657"></path><path d="M530.944 428.544C492.544 435.2 452.096 438.272 409.6 438.272c-182.272 0-334.848-62.976-373.76-147.968-6.144 13.824-9.728 27.648-9.728 42.496 0 104.96 171.52 189.952 382.976 189.952 10.24 0 19.968-0.512 30.208-1.024 24.576-36.352 55.296-67.584 91.648-93.184zM782.848 376.832c6.656-13.824 10.752-28.672 10.752-43.52 0-14.336-3.584-28.672-9.728-42.496-13.824 30.208-42.496 57.344-80.896 79.872 5.12-0.512 10.752-1.024 16.384-1.024 20.992 0.512 42.496 2.56 63.488 7.168z" fill="#FB7895" p-id="4658"></path><path d="M409.6 564.224c-182.272 0-334.848-62.976-373.76-147.968-6.144 13.824-9.728 27.648-9.728 42.496 0 101.888 161.792 185.344 365.568 189.952 4.608-29.696 13.312-57.856 25.6-84.48H409.6z" fill="#FB7895" p-id="4659"></path><path d="M388.096 688.64c-172.544-4.608-314.88-66.56-351.744-147.456-6.144 13.824-9.728 27.648-9.728 42.496 0 102.4 163.84 186.368 368.64 189.952-5.12-23.552-8.192-47.104-8.192-71.68 0.512-4.608 1.024-9.216 1.024-13.312z" fill="#FB7895" p-id="4660"></path><path d="M36.352 666.624c-6.144 13.824-9.728 27.648-9.728 42.496 0 104.96 171.52 189.952 382.976 189.952 14.336 0 28.16-0.512 41.984-1.024-18.432-25.6-33.28-53.248-44.032-83.456-181.248-1.024-332.8-64.512-371.2-147.968z" fill="#FB7895" p-id="4661"></path><path d="M484.864 935.424c-24.576 2.56-49.152 3.584-75.264 3.584-182.272 0-334.848-62.976-373.76-147.968-6.144 13.824-9.728 27.648-9.728 42.496 0 104.96 171.52 189.952 382.976 189.952 62.464 0 120.832-7.68 173.056-20.48-35.84-16.896-69.12-39.424-97.28-67.584z" fill="#FB7895" p-id="4662"></path></svg>