<?xml version="1.0" standalone="no"?><!DOCTYPE svg PUBLIC "-//W3C//DTD SVG 1.1//EN" "http://www.w3.org/Graphics/SVG/1.1/DTD/svg11.dtd"><svg t="1545715096772" class="icon" style="" viewBox="0 0 1024 1024" version="1.1" xmlns="http://www.w3.org/2000/svg" p-id="7339" xmlns:xlink="http://www.w3.org/1999/xlink" width="200" height="200"><defs><style type="text/css"></style></defs><path d="M627.712 207.872l-19.968-15.36c8.192-16.896 15.872-43.008 19.968-48.64l90.624-94.208c6.656-9.728 7.168-22.528 1.536-32.768S703.488 0 691.712 0H275.456c-11.776 0-22.528 6.656-28.16 16.896s-5.12 23.04 1.536 32.768l90.624 94.208c4.096 5.632 11.776 31.744 19.968 48.64l-19.968 15.36C185.344 327.68 67.584 571.904 67.584 751.616c0 271.872 211.456 271.872 416.256 271.872s416.256 0 416.256-271.872c-0.512-179.712-118.272-423.424-272.384-543.744z" fill="#4CAF50" p-id="7340"></path><path d="M344.576 143.872h288.256v64H344.576V143.872z" fill="#2E7D32" p-id="7341"></path><path d="M309.248 605.696c0 99.84 80.896 180.736 180.736 180.736s180.736-80.896 180.736-180.736C670.72 505.856 589.824 424.96 489.984 424.96s-180.736 80.896-180.736 180.736z" fill="#C8E6C9" p-id="7342"></path><path d="M561.152 638.464c0 15.36-5.12 28.16-15.36 37.376-10.24 9.728-23.552 15.36-40.448 17.408v29.184h-26.112v-28.16c-25.6-1.024-46.08-9.216-61.44-24.576l23.552-23.552c9.728 9.728 23.552 14.848 41.472 15.36V614.4l-8.192-1.024c-15.36-2.048-27.648-7.168-35.84-15.36-8.704-8.704-13.312-20.992-13.312-35.84s4.608-27.648 14.336-37.888 23.04-15.872 39.424-17.92v-23.552h26.112V506.88c20.992 1.024 37.888 8.192 51.2 20.992l-23.04 22.528c-7.68-7.168-18.432-11.264-31.744-12.8v45.056l9.728 1.536c15.872 2.56 27.648 7.168 35.328 14.336 9.728 10.24 14.336 23.04 14.336 39.936z m-78.848-56.32v-43.52c-7.168 1.024-12.8 3.584-16.896 7.68s-5.632 9.216-5.632 14.848c0 5.12 1.536 9.728 5.632 13.312 4.096 4.096 9.728 6.656 16.896 7.68z m43.52 57.856c0-6.656-2.048-11.776-5.632-15.36-3.584-3.072-9.216-5.12-18.432-6.656v44.544c15.872-2.56 24.064-9.728 24.064-22.528z" fill="#4CAF50" p-id="7343"></path></svg>