<?xml version="1.0" standalone="no"?><!DOCTYPE svg PUBLIC "-//W3C//DTD SVG 1.1//EN" "http://www.w3.org/Graphics/SVG/1.1/DTD/svg11.dtd"><svg t="1545715059055" class="icon" style="" viewBox="0 0 1024 1024" version="1.1" xmlns="http://www.w3.org/2000/svg" p-id="5710" xmlns:xlink="http://www.w3.org/1999/xlink" width="200" height="200"><defs><style type="text/css"></style></defs><path d="M920.064 328.192c-3.584-0.512-6.656-1.024-10.24-1.024H238.592L209.92 184.832c-3.072-16.384-17.92-28.16-34.304-28.16H35.328c-19.456 0-35.328 15.36-35.328 34.816s15.872 35.328 35.328 35.328h111.616L179.2 389.632v0.512l69.12 346.112 13.824 69.632 1.024 5.12c5.12 24.576 26.624 42.496 51.712 42.496h510.464c25.088 0 46.592-17.92 51.712-42.496l84.48-421.376c5.632-28.16-12.8-55.808-41.472-61.44z" fill="#FF634B" p-id="5711"></path><path d="M400.896 887.808c-37.376 0-68.096 30.72-68.096 68.096 0 37.888 30.72 68.096 68.096 68.096 37.888 0 68.096-30.72 68.096-68.096 0.512-37.376-30.208-68.096-68.096-68.096z" fill="#FFB9B6" p-id="5712"></path><path d="M742.4 955.904m-68.096 0a68.096 68.096 0 1 0 136.192 0 68.096 68.096 0 1 0-136.192 0Z" fill="#FFB9B6" p-id="5713"></path><path d="M997.376 145.92L868.352 48.128c-30.208-22.528-72.704-16.896-95.744 13.312l-148.992 197.632h373.76l13.312-17.92c22.528-29.696 16.896-72.704-13.312-95.232z" fill="#FF634B" p-id="5714"></path></svg>