<?xml version="1.0" standalone="no"?><!DOCTYPE svg PUBLIC "-//W3C//DTD SVG 1.1//EN" "http://www.w3.org/Graphics/SVG/1.1/DTD/svg11.dtd"><svg t="1545714992630" class="icon" style="" viewBox="0 0 1024 1024" version="1.1" xmlns="http://www.w3.org/2000/svg" p-id="3369" xmlns:xlink="http://www.w3.org/1999/xlink" width="200" height="200"><defs><style type="text/css"></style></defs><path d="M514.558721 0c143.8001 0 259.966017 114.630685 259.966017 255.872064s-116.677661 255.872064-259.966017 255.872064c-143.8001 0-259.966017-114.630685-259.966017-255.872064-0.511744-141.241379 116.165917-255.872064 259.966017-255.872064z" fill="#F95352" p-id="3370"></path><path d="M514.558721 0c143.8001 0 259.966017 114.630685 259.966017 255.872064s-116.677661 255.872064-259.966017 255.872064c-143.8001 0-259.966017-114.630685-259.966017-255.872064-0.511744-141.241379 116.165917-255.872064 259.966017-255.872064z" fill="#FF8080" p-id="3371"></path><path d="M416.815592 597.205397h216.97951c185.763118 0 336.215892 147.894053 336.215893 330.586707v21.493253c0 72.155922-150.452774 74.714643-336.215893 74.714643H416.815592c-185.763118 0-336.215892 0-336.215892-74.714643v-21.493253c0-182.692654 150.452774-330.586707 336.215892-330.586707z" fill="#F95352" p-id="3372"></path></svg>