<?xml version="1.0" standalone="no"?><!DOCTYPE svg PUBLIC "-//W3C//DTD SVG 1.1//EN" "http://www.w3.org/Graphics/SVG/1.1/DTD/svg11.dtd"><svg t="1545715039828" class="icon" style="" viewBox="0 0 1024 1024" version="1.1" xmlns="http://www.w3.org/2000/svg" p-id="4894" xmlns:xlink="http://www.w3.org/1999/xlink" width="200" height="200"><defs><style type="text/css"></style></defs><path d="M409.6 248.32m-233.984 0a233.984 233.984 0 1 0 467.968 0 233.984 233.984 0 1 0-467.968 0Z" fill="#FFCDAB" p-id="4895"></path><path d="M626.176 444.416c14.336 3.072 31.744 9.216 47.104 9.216 96.256 0 175.616-78.848 175.616-175.616S769.536 102.4 672.768 102.4h-9.216c23.552 44.032 37.888 93.696 37.888 146.432 0.512 75.776-28.672 145.92-75.264 195.584z" fill="#FFCDAB" p-id="4896"></path><path d="M672.768 512c-26.624 0-52.224 3.072-78.848 9.216 158.208 67.584 269.824 219.648 281.088 400.896h90.624c31.744 0 58.368-26.624 58.368-58.368 0-193.536-158.208-351.744-351.232-351.744z" fill="#FFA161" p-id="4897"></path><path d="M409.6 541.696c-225.792 0-409.6 184.32-409.6 409.6 0 17.408 0 58.368 58.368 58.368h702.464c58.368 0 58.368-40.96 58.368-58.368 0.512-225.792-184.32-409.6-409.6-409.6z" fill="#FFA161" p-id="4898"></path></svg>