<?xml version="1.0" standalone="no"?><!DOCTYPE svg PUBLIC "-//W3C//DTD SVG 1.1//EN" "http://www.w3.org/Graphics/SVG/1.1/DTD/svg11.dtd"><svg t="1545715037511" class="icon" style="" viewBox="0 0 1024 1024" version="1.1" xmlns="http://www.w3.org/2000/svg" p-id="4776" xmlns:xlink="http://www.w3.org/1999/xlink" width="200" height="200"><defs><style type="text/css"></style></defs><path d="M1024.115866 503.808c0-33.28-4.608-65.536-12.8-96.256h0.512c-28.672-106.496-101.888-191.488-196.608-237.056h-0.512c-4.608-2.048-9.728-4.608-14.336-6.656-1.536-0.512-3.072-1.024-4.608-2.048-3.584-1.536-7.168-3.072-10.752-4.096-2.048-0.512-3.584-1.536-5.632-2.048-3.584-1.024-7.168-2.56-10.24-3.584-2.048-0.512-4.096-1.024-5.632-2.048-4.096-1.024-8.192-2.56-12.288-3.584-1.536-0.512-2.56-1.024-4.096-1.024-5.632-1.536-10.752-2.56-16.384-3.584-1.536-0.512-3.072-0.512-5.12-1.024-4.096-1.024-8.192-1.536-11.776-2.048-2.048-0.512-4.096-0.512-6.144-1.024-3.584-0.512-7.68-1.024-11.264-1.536-2.048 0-4.096-0.512-6.144-0.512-4.096-0.512-8.192-0.512-12.288-1.024-1.536 0-3.072 0-5.12-0.512-5.632-0.512-11.776-0.512-17.408-0.512-6.144 0-11.776 0-17.408 0.512-1.536 0-3.072 0-5.12 0.512-4.096 0-8.192 0.512-12.288 1.024-2.048 0-4.096 0.512-6.144 0.512-3.584 0.512-7.68 1.024-11.264 1.536-2.048 0.512-4.096 0.512-6.144 1.024-4.096 0.512-8.192 1.536-11.776 2.048-1.536 0.512-3.072 0.512-5.12 1.024-5.632 1.024-10.752 2.56-16.384 3.584-1.536 0.512-2.56 0.512-4.096 1.024-4.096 1.024-8.192 2.048-12.288 3.584-2.048 0.512-4.096 1.024-5.632 2.048-3.584 1.024-7.168 2.048-10.24 3.584-2.048 0.512-3.584 1.536-5.632 2.048-3.584 1.536-7.168 2.56-10.752 4.096-1.536 0.512-3.072 1.024-4.608 2.048-5.12 2.048-9.728 4.096-14.336 6.656h-0.512C399.475866 216.064 326.259866 301.056 297.587866 407.552h0.512c-8.192 30.72-12.8 62.976-12.8 96.256 0 156.672 217.088 385.024 318.464 482.816 10.24 9.728 20.48 19.968 31.232 29.184 5.632 5.12 12.8 7.68 19.968 7.68s14.336-2.56 19.968-7.68c10.24-9.728 20.992-19.456 31.232-29.184C807.027866 888.832 1024.115866 660.48 1024.115866 503.808z" fill="#52DAFF" p-id="4777"></path><path d="M782.451866 493.056c-4.608 71.168-65.536 124.928-136.704 120.832-71.168-4.608-124.928-65.536-120.832-136.704s65.536-124.928 136.704-120.832c31.232 2.048 60.928 15.36 82.944 37.376 26.624 26.624 40.448 62.464 37.888 99.328z" fill="#FFFFFF" p-id="4778"></path><path d="M126.579866 528.896c0 102.912 83.456 185.856 185.856 185.856 102.912 0 185.856-83.456 185.856-185.856C498.803866 425.984 415.347866 343.04 312.435866 343.04c-32.768 0-64.512 8.704-93.184 25.088-57.344 32.768-92.672 94.208-92.672 160.768z" fill="#BDFFFF" p-id="4779"></path><path d="M581.235866 1020.928c24.064 0 44.032-19.456 43.52-44.032 0-2.56 0-4.608-0.512-7.168-29.184-172.032-193.024-288.256-365.056-258.56-132.608 22.528-236.032 126.464-258.56 258.56-4.096 24.064 12.288 46.592 36.352 50.176 2.56 0.512 5.12 0.512 7.168 0.512h537.088v0.512z" fill="#BDFFFF" p-id="4780"></path></svg>