<?xml version="1.0" standalone="no"?><!DOCTYPE svg PUBLIC "-//W3C//DTD SVG 1.1//EN" "http://www.w3.org/Graphics/SVG/1.1/DTD/svg11.dtd"><svg t="1545715045896" class="icon" style="" viewBox="0 0 1024 1024" version="1.1" xmlns="http://www.w3.org/2000/svg" p-id="5128" xmlns:xlink="http://www.w3.org/1999/xlink" width="200" height="200"><defs><style type="text/css"></style></defs><path d="M627.2 972.8c19.456 19.456 51.2 25.6 76.8 12.8 45.056-19.456 83.456-38.4 121.856-70.656 19.456-19.456 32.256-44.544 25.6-76.8-6.656-38.4 0-83.456 19.456-121.856s57.344-64 96.256-76.8c25.6-6.656 44.544-32.256 51.2-57.344 6.656-45.056 6.656-96.256 0-140.8-6.656-25.6-25.6-51.2-51.2-57.856-38.4-12.8-76.8-38.4-96.256-76.8s-25.6-83.456-19.456-121.856c6.656-25.6-6.656-57.856-25.6-76.8-38.4-31.744-76.8-51.2-121.856-70.656-25.6-12.8-57.344-6.656-76.8 12.8C563.2 109.056 460.8 109.056 396.8 51.2c-19.456-19.456-51.2-25.6-76.8-12.8-44.544 18.944-83.456 38.4-121.856 70.656-25.6 19.456-32.256 45.056-25.6 76.8C192 268.8 140.8 358.4 57.856 384c-32.256 6.656-51.2 32.256-51.2 57.856C0 467.456 0 486.4 0 512s0 45.056 6.656 70.656c0 25.6 19.456 51.2 51.2 57.344 38.4 12.8 76.8 38.4 96.256 76.8s25.6 83.456 18.944 121.856c-6.656 25.6 6.656 57.344 25.6 76.8 38.4 32.256 76.8 51.2 121.856 70.656 25.6 12.8 57.856 6.656 76.8-12.8 63.488-64.512 165.888-64.512 229.888-0.512z" fill="#919BF2" p-id="5129"></path><path d="M512 512m-147.456 0a147.456 147.456 0 1 0 294.912 0 147.456 147.456 0 1 0-294.912 0Z" fill="#FFFFFF" p-id="5130"></path></svg>