<?xml version="1.0" standalone="no"?><!DOCTYPE svg PUBLIC "-//W3C//DTD SVG 1.1//EN" "http://www.w3.org/Graphics/SVG/1.1/DTD/svg11.dtd"><svg t="1545715092003" class="icon" style="" viewBox="0 0 1024 1024" version="1.1" xmlns="http://www.w3.org/2000/svg" p-id="7106" xmlns:xlink="http://www.w3.org/1999/xlink" width="200" height="200"><defs><style type="text/css"></style></defs><path d="M895.488 0H128.512C57.856 0 0 52.736 0 116.736v790.016C0 971.264 57.856 1024 128.512 1024h766.976c70.656 0 128.512-52.736 128.512-116.736V116.736C1024 52.736 966.144 0 895.488 0z" fill="#FEBC8E" p-id="7107"></path><path d="M491.008 136.704c174.08 0 315.392 141.312 315.392 315.392 0 75.776-26.624 145.408-70.656 199.168l158.72 158.72c17.408 17.408 17.408 46.08 0 63.488-17.408 17.408-46.08 17.408-63.488 0L669.184 711.68c-50.688 34.816-112.128 54.784-178.176 54.784-174.08 0-315.392-141.312-315.392-315.392 0-172.544 141.312-314.368 315.392-314.368z" fill="#FCFCFC" p-id="7108"></path><path d="M488.96 686.592c130.56 0 236.032-105.984 236.032-236.032 0-130.56-105.984-236.032-236.032-236.032C358.4 214.528 252.928 320.512 252.928 450.56s104.96 236.032 236.032 236.032z" fill="#FEBC8E" p-id="7109"></path></svg>