<?xml version="1.0" standalone="no"?><!DOCTYPE svg PUBLIC "-//W3C//DTD SVG 1.1//EN" "http://www.w3.org/Graphics/SVG/1.1/DTD/svg11.dtd"><svg t="1545715077046" class="icon" style="" viewBox="0 0 1024 1024" version="1.1" xmlns="http://www.w3.org/2000/svg" p-id="6407" xmlns:xlink="http://www.w3.org/1999/xlink" width="200" height="200"><defs><style type="text/css"></style></defs><path d="M991.744 863.744H32.256c-17.92 0-32.256 14.336-32.256 31.744 0 17.92 14.336 31.744 32.256 31.744h960c17.92 0 32.256-14.336 32.256-31.744-0.512-17.408-14.848-31.744-32.768-31.744zM543.744 224.256V160.256H640c17.92 0 32.256-14.336 32.256-31.744 0-17.92-14.336-32.256-32.256-32.256H384c-17.92 0-32.256 14.336-32.256 32.256 0 17.408 14.336 31.744 32.256 31.744h95.744v64C212.48 240.64 0 463.872 0 735.744v32.256c0 17.408 14.336 31.744 32.256 31.744h960c17.92 0 32.256-14.336 32.256-31.744v-32.256c-0.512-271.872-212.992-495.104-480.768-511.488z" fill="#FFB850" p-id="6408"></path><path d="M538.112 716.288c-7.168 16.896-25.088 24.064-40.448 16.384s-22.016-27.136-15.36-44.032l49.152-112.128-104.448 1.024c-13.312 0-25.088-8.704-29.696-20.48-3.584-7.68-4.096-16.896-0.512-25.088l73.216-145.408c6.656-16.384 25.6-24.064 41.984-17.408 16.384 6.656 24.064 25.6 17.408 41.984L480.256 512h96.256c17.92 0 31.744 14.336 31.744 31.744 0 19.456-70.144 172.544-70.144 172.544z" fill="#FFFFFF" p-id="6409"></path></svg>