<?xml version="1.0" standalone="no"?><!DOCTYPE svg PUBLIC "-//W3C//DTD SVG 1.1//EN" "http://www.w3.org/Graphics/SVG/1.1/DTD/svg11.dtd"><svg t="1545715084244" class="icon" style="" viewBox="0 0 1024 1024" version="1.1" xmlns="http://www.w3.org/2000/svg" p-id="6755" xmlns:xlink="http://www.w3.org/1999/xlink" width="200" height="200"><defs><style type="text/css"></style></defs><path d="M512 512m-512 0a512 512 0 1 0 1024 0 512 512 0 1 0-1024 0Z" fill="#FF8980" p-id="6756"></path><path d="M300.544 359.936m-66.048 0a66.048 66.048 0 1 0 132.096 0 66.048 66.048 0 1 0-132.096 0Z" fill="#FFFFFF" p-id="6757"></path><path d="M776.704 794.112c-3.584 3.584-11.264 3.584-14.848 3.584-14.848 0-29.184-7.168-36.864-22.016-40.448-88.064-124.928-146.944-220.16-146.944s-179.712 58.88-220.16 146.944c-7.168 18.432-33.28 29.184-51.2 22.016-14.848-7.168-25.6-29.184-18.432-47.616 51.2-113.664 165.376-187.392 289.792-187.392s238.592 73.216 289.792 187.392c8.192 18.432 4.096 36.864-17.92 44.032z" fill="#FFFFFF" p-id="6758"></path><path d="M710.144 366.592m-66.048 0a66.048 66.048 0 1 0 132.096 0 66.048 66.048 0 1 0-132.096 0Z" fill="#FFFFFF" p-id="6759"></path></svg>