<?xml version="1.0" standalone="no"?><!DOCTYPE svg PUBLIC "-//W3C//DTD SVG 1.1//EN" "http://www.w3.org/Graphics/SVG/1.1/DTD/svg11.dtd"><svg t="1545715048471" class="icon" style="" viewBox="0 0 1026 1024" version="1.1" xmlns="http://www.w3.org/2000/svg" p-id="5244" xmlns:xlink="http://www.w3.org/1999/xlink" width="200.390625" height="200"><defs><style type="text/css"></style></defs><path d="M910.848 232.96H101.376c-54.784-19.968-101.376 25.6-101.376 56.32v451.072c0 31.232 45.568 56.32 101.376 56.32h370.688v208.896c0 4.608 3.584 8.192 8.192 8.192h49.152c4.608 0 8.192-3.584 8.192-8.192v-208.896h373.248c55.808 0 101.376-25.6 101.376-56.32V289.28c-0.512-30.72-38.4-71.168-101.376-56.32z" fill="#99E0FF" p-id="5245"></path><path d="M530.944 1021.44l485.888-245.248V287.744l-483.328 245.248-2.56 488.448zM508.416 5.12L25.088 248.32l483.328 245.248 483.328-245.248L508.416 5.12z m-29.696 1011.712l2.56-485.888L0.512 287.744v488.448l478.208 240.64z" fill="#079BEF" p-id="5246"></path></svg>