<?xml version="1.0" standalone="no"?><!DOCTYPE svg PUBLIC "-//W3C//DTD SVG 1.1//EN" "http://www.w3.org/Graphics/SVG/1.1/DTD/svg11.dtd"><svg t="1545714942115" class="icon" style="" viewBox="0 0 1024 1024" version="1.1" xmlns="http://www.w3.org/2000/svg" p-id="3134" xmlns:xlink="http://www.w3.org/1999/xlink" width="200" height="200"><defs><style type="text/css"></style></defs><path d="M512 32.256C230.4 32.256 0 246.272 0 512c0 112.128 41.472 217.6 115.2 304.128C64 886.272 25.6 941.056 25.6 941.056c-6.144 9.728-6.144 22.528-3.072 32.256 9.728 12.8 19.456 19.456 32.256 19.456H512c281.6 0 512-214.528 512-480.256S793.6 32.256 512 32.256z" fill="#1D8FE1" p-id="3135"></path><path d="M294.4 512m-64 0a64 64 0 1 0 128 0 64 64 0 1 0-128 0Z" fill="#FFFFFF" p-id="3136"></path><path d="M512 512m-64 0a64 64 0 1 0 128 0 64 64 0 1 0-128 0Z" fill="#FFFFFF" p-id="3137"></path><path d="M729.6 512m-64 0a64 64 0 1 0 128 0 64 64 0 1 0-128 0Z" fill="#FFFFFF" p-id="3138"></path></svg>